<svg width="48" height="48" viewBox="0 0 48 48" fill="none" xmlns="http://www.w3.org/2000/svg">
<rect width="48" height="48" rx="24" fill="#ED3726"/>
<path d="M15.9999 37.3334C15.2927 37.3334 14.6144 37.0525 14.1143 36.5524C13.6142 36.0523 13.3333 35.374 13.3333 34.6668V13.3334C13.3333 12.6262 13.6142 11.9479 14.1143 11.4478C14.6144 10.9477 15.2927 10.6668 15.9999 10.6668H26.6666C27.0887 10.6661 27.5067 10.7489 27.8966 10.9104C28.2866 11.072 28.6407 11.3091 28.9386 11.6081L33.7226 16.3921C34.0224 16.6901 34.2601 17.0445 34.4222 17.435C34.5842 17.8254 34.6673 18.244 34.6666 18.6668V34.6668C34.6666 35.374 34.3856 36.0523 33.8855 36.5524C33.3854 37.0525 32.7072 37.3334 31.9999 37.3334H15.9999Z" stroke="white" stroke-width="2.66667" stroke-linecap="round" stroke-linejoin="round"/>
<path d="M26.6667 10.6667V17.3334C26.6667 17.687 26.8072 18.0262 27.0573 18.2762C27.3073 18.5263 27.6465 18.6667 28.0001 18.6667H34.6667" stroke="white" stroke-width="2.66667" stroke-linecap="round" stroke-linejoin="round"/>
<path d="M20 27.9999L22.6667 30.6666L28 25.3333" stroke="white" stroke-width="2.66667" stroke-linecap="round" stroke-linejoin="round"/>
</svg>
