<svg width="48" height="48" viewBox="0 0 48 48" fill="none" xmlns="http://www.w3.org/2000/svg">
<rect width="48" height="48" rx="24" fill="#ED3726"/>
<path d="M37.0679 21.3333C37.6768 24.3217 37.2428 27.4286 35.8384 30.1357C34.4339 32.8429 32.1437 34.9867 29.3499 36.2097C26.5561 37.4328 23.4274 37.661 20.4856 36.8565C17.5439 36.0519 14.9668 34.2632 13.1843 31.7885C11.4017 29.3139 10.5214 26.303 10.6901 23.2578C10.8588 20.2127 12.0664 17.3174 14.1114 15.0549C16.1565 12.7923 18.9153 11.2992 21.928 10.8246C24.9406 10.35 28.0249 10.9225 30.6666 12.4467" stroke="white" stroke-width="2.66667" stroke-linecap="round" stroke-linejoin="round"/>
<path d="M20 22.6666L24 26.6666L37.3333 13.3333" stroke="white" stroke-width="2.66667" stroke-linecap="round" stroke-linejoin="round"/>
</svg>
