<svg width="48" height="48" viewBox="0 0 48 48" fill="none" xmlns="http://www.w3.org/2000/svg">
<rect width="48" height="48" rx="24" fill="#ED3726"/>
<path d="M29.6533 18.3467L27.248 25.5613C27.1171 25.9541 26.8965 26.311 26.6038 26.6038C26.311 26.8965 25.9541 27.1171 25.5613 27.248L18.3467 29.6533L20.752 22.4387C20.8829 22.0459 21.1035 21.689 21.3962 21.3962C21.689 21.1035 22.0459 20.8829 22.4387 20.752L29.6533 18.3467Z" stroke="white" stroke-width="2.66667" stroke-linecap="round" stroke-linejoin="round"/>
<path d="M24.0001 37.3334C31.3639 37.3334 37.3334 31.3639 37.3334 24.0001C37.3334 16.6363 31.3639 10.6667 24.0001 10.6667C16.6363 10.6667 10.6667 16.6363 10.6667 24.0001C10.6667 31.3639 16.6363 37.3334 24.0001 37.3334Z" stroke="white" stroke-width="2.66667" stroke-linecap="round" stroke-linejoin="round"/>
</svg>
