<svg width="23" height="23" viewBox="0 0 23 23" fill="none" xmlns="http://www.w3.org/2000/svg">
<path d="M8.42676 1.8418C9.81532 0.768133 12.1021 0.712075 13.5459 1.72363V1.72461L20.1631 6.35449C20.6334 6.68372 21.1033 7.24332 21.4561 7.91895C21.8088 8.59459 22 9.30102 22 9.87793V17.667C21.9998 20.0441 20.0695 21.9746 17.6924 21.9746H5.30762C2.9332 21.9746 1.00003 20.0353 1 17.6553V9.72852C1 9.19591 1.17228 8.52579 1.49414 7.87207C1.81575 7.21888 2.24456 6.66827 2.67188 6.33496L8.42676 1.8418ZM11.5 13.0703C10.4767 13.0703 9.63867 13.9093 9.63867 14.9326V18.3789C9.63867 19.4022 10.4767 20.2402 11.5 20.2402C12.5233 20.2402 13.3613 19.4022 13.3613 18.3789V14.9326C13.3613 13.9732 12.6248 13.1759 11.6895 13.0801L11.5 13.0703Z" fill="white" stroke="#848282" stroke-width="2"/>
</svg>
