<svg width="48" height="56" viewBox="0 0 48 56" fill="none" xmlns="http://www.w3.org/2000/svg">
<rect width="48" height="48" rx="24" fill="#ED3726"/>
<path d="M24.0001 37.3334C31.3639 37.3334 37.3334 31.3639 37.3334 24.0001C37.3334 16.6363 31.3639 10.6667 24.0001 10.6667C16.6363 10.6667 10.6667 16.6363 10.6667 24.0001C10.6667 31.3639 16.6363 37.3334 24.0001 37.3334Z" stroke="white" stroke-width="2.66667" stroke-linecap="round" stroke-linejoin="round"/>
<path d="M24.0001 10.6667C20.5764 14.2616 18.6667 19.0357 18.6667 24.0001C18.6667 28.9644 20.5764 33.7385 24.0001 37.3334C27.4238 33.7385 29.3334 28.9644 29.3334 24.0001C29.3334 19.0357 27.4238 14.2616 24.0001 10.6667Z" stroke="white" stroke-width="2.66667" stroke-linecap="round" stroke-linejoin="round"/>
<path d="M10.6667 24H37.3334" stroke="white" stroke-width="2.66667" stroke-linecap="round" stroke-linejoin="round"/>
</svg>
